<svg width="260" height="402" viewBox="0 0 260 402" fill="none" xmlns="http://www.w3.org/2000/svg">
<rect x="0.5" y="1.69357" width="259" height="399" rx="11.5" fill="white" stroke="#0007A3"/>
<path d="M0.5 40.5L30 2" stroke="#0007A2"/>
<path d="M0.5 14.5C6.5 12.5 12 15.5 17 19.6936" stroke="#0007A2"/>
<path d="M12.5981 1.68663C9.50005 7.00001 13.5 12.5 19.1563 16.5716" stroke="#0007A2"/>
<path d="M0.5 361.5L31 400.5" stroke="#0007A2"/>
<path d="M0.5 387.5C6 388.5 11 387 17 382.694" stroke="#0007A2"/>
<path d="M13 400.5C8.50005 394 15 389.5 19.1564 385.816" stroke="#0007A2"/>
<path d="M259.5 39.5L230 1.5" stroke="#0007A2"/>
<path d="M259.5 14C253 12.5 247 16.1935 244 19.6936" stroke="#0007A2"/>
<path d="M248.402 1.68663C251.959 6.96386 245.853 14.296 241.844 16.5716" stroke="#0007A2"/>
<path d="M259.5 365L230.5 400.5" stroke="#0007A2"/>
<path d="M259.5 385C252 388.5 248 386 245 382.5" stroke="#0007A2"/>
<path d="M248.402 400.701C251.5 395 246 388 243 385" stroke="#0007A2"/>
</svg>
